<svg width="16" height="16" viewBox="0 0 16 16" fill="none" xmlns="http://www.w3.org/2000/svg">
<path d="M7.64765 4.46372L8.88509 3.22628C9.14041 2.97073 9.44358 2.76798 9.77727 2.62962C10.111 2.49126 10.4687 2.42001 10.8299 2.41992C11.1911 2.41984 11.5489 2.49093 11.8826 2.62913C12.2164 2.76733 12.5196 2.96994 12.7751 3.22538C13.0305 3.48082 13.2331 3.78408 13.3713 4.11784C13.5095 4.4516 13.5806 4.80932 13.5805 5.17056C13.5805 5.53181 13.5092 5.88949 13.3708 6.22319C13.2325 6.55688 13.0297 6.86005 12.7742 7.11537L11.0064 8.88314C10.7511 9.1385 10.4479 9.34106 10.1142 9.47926C9.7806 9.61746 9.423 9.6886 9.06187 9.6886C8.70073 9.6886 8.34313 9.61746 8.00949 9.47926C7.67584 9.34106 7.37269 9.1385 7.11732 8.88314M8.35476 11.5348L7.11732 12.7722C6.86201 13.0278 6.55884 13.2305 6.22514 13.3689C5.89144 13.5072 5.53376 13.5785 5.17251 13.5786C4.81127 13.5787 4.45355 13.5076 4.11979 13.3694C3.78603 13.2312 3.48277 13.0286 3.22733 12.7731C2.97189 12.5177 2.76929 12.2144 2.63108 11.8807C2.49288 11.5469 2.42179 11.1892 2.42188 10.8279C2.42196 10.4667 2.49322 10.109 2.63157 9.77532C2.76993 9.44162 2.97268 9.13846 3.22824 8.88314L4.996 7.11537C5.25136 6.86001 5.55452 6.65745 5.88817 6.51925C6.22181 6.38105 6.57941 6.30992 6.94055 6.30992C7.30168 6.30992 7.65928 6.38105 7.99293 6.51925C8.32657 6.65745 8.62973 6.86001 8.88509 7.11537" stroke="#336FEE" stroke-linecap="round" stroke-linejoin="round"/>
</svg>
