<svg width="24" height="24" viewBox="0 0 24 24" fill="none" xmlns="http://www.w3.org/2000/svg">
<mask id="mask0_1907_4286" style="mask-type:alpha" maskUnits="userSpaceOnUse" x="1" y="1" width="22" height="22">
<path fill-rule="evenodd" clip-rule="evenodd" d="M19.8098 4.25311C17.8168 2.24413 15.054 1 12.0005 1C8.95762 1 6.20334 2.23551 4.21191 4.23224L8.45455 8.47487C9.36022 7.56393 10.6145 7 12.0005 7C13.3971 7 14.66 7.5726 15.5671 8.4958L19.8098 4.25311ZM15.5464 15.5251C14.6408 16.4361 13.3865 17 12.0005 17C10.6251 17 9.37935 16.4447 8.47535 15.5459L4.23273 19.7886C6.22251 21.7731 8.96822 23 12.0005 23C15.0434 23 17.7976 21.7645 19.7891 19.7677L15.5464 15.5251Z" fill="url(#paint0_linear_1907_4286)"/>
<path fill-rule="evenodd" clip-rule="evenodd" d="M4.21143 4.23242C2.22693 6.2222 1 8.96791 1 12.0002C1 15.043 2.23551 17.7973 4.23224 19.7888L8.47487 15.5461C7.56393 14.6404 7 13.3862 7 12.0002C7 10.6248 7.55533 9.37904 8.45407 8.47504L4.21143 4.23242ZM15.5666 8.49597L19.8093 4.25329C21.7816 6.24138 23 8.97851 23 12.0002C23 15.0324 21.7731 17.7782 19.7886 19.7679L15.5459 15.5253C16.4447 14.6213 17 13.3756 17 12.0002C17 10.6354 16.4531 9.39824 15.5666 8.49597Z" fill="black"/>
</mask>
<g mask="url(#mask0_1907_4286)">
<path d="M0 0H24V24H0V0Z" fill="#E2AA00"/>
</g>
<defs>
<linearGradient id="paint0_linear_1907_4286" x1="23.0005" y1="13" x2="1.00049" y2="13" gradientUnits="userSpaceOnUse">
<stop stop-opacity="0.6"/>
<stop offset="1" stop-opacity="0.25"/>
</linearGradient>
</defs>
</svg>
