<svg width="101" height="32" viewBox="0 0 101 32" fill="none" xmlns="http://www.w3.org/2000/svg">
<g clip-path="url(#clip0_1907_4330)">
<path d="M16.0807 0C16.0807 2.75514 14.3683 4.43614 12.4215 4.43614H9.73618V23.5226H5.2084V4.43614H0V0H16.0807Z" fill="#202020"/>
<path d="M22.862 6.04891V8.2706C23.6004 6.71986 24.8419 5.71705 26.2857 5.64985C30.0121 5.41414 31.019 9.51429 29.0743 10.9585C28.2687 8.74099 23.871 9.61457 23.5354 13.4118C23.4682 14.487 23.4683 15.5963 23.4683 16.4699V23.5267H19.1016V6.05511L22.862 6.04891Z" fill="#202020"/>
<path d="M38.4046 12.6013C39.7813 13.7778 41.7952 13.6765 43.4735 13.509C47.7369 13.1389 45.5887 9.03976 41.9966 9.24136C39.4456 9.37575 37.1621 11.5261 37.095 14.55C37.0278 17.0705 38.5058 19.591 40.8884 19.9942C41.7932 20.1461 42.7214 20.0756 43.5929 19.7887C44.4644 19.5018 45.2532 19.0071 45.8913 18.3473L49.4121 20.0614C47.5985 22.7834 45.0806 23.8927 41.8582 23.8927C32.8657 23.8927 30.5119 13.4397 35.4167 8.30058C37.1962 6.3849 39.7472 5.64572 42.2331 5.64572C50.5244 5.64572 52.337 15.0535 45.2541 16.8017C40.4185 18.0113 37.0619 15.9281 38.4046 12.6013Z" fill="#202020"/>
<path d="M52.5374 23.5226V3.46641C52.5374 1.65412 54.1496 0.0723677 56.7718 0.00516912V13.5431C56.7718 16.6012 57.7788 20.0624 61.2707 20.0624C67.4468 20.0624 67.3126 10.0488 61.2366 10.0488C60.0282 10.0488 58.4481 10.3506 57.7117 11.4258C56.9391 10.0147 57.376 6.28462 61.8077 6.11714C66.1042 5.98274 70.099 9.74586 70.099 15.0215C70.099 23.2207 61.7406 26.5817 56.776 21.6752V23.5236L52.5374 23.5226Z" fill="#202020"/>
<path d="M86.0764 21.6069C81.0074 26.6479 72.4435 23.2197 72.4435 14.7837C72.4435 9.37369 76.5396 5.50925 80.9372 5.67673C85.2347 5.84524 85.939 9.67556 85.1335 11.1209C84.395 10.0116 82.7839 9.70968 81.5084 9.70968C75.2971 9.70968 75.1628 19.959 81.5084 19.959C85.0663 19.959 86.0733 16.3965 86.0733 13.2712V6.11611H90.4379V23.5226H86.0764V21.6069Z" fill="#202020"/>
<path d="M100.208 19.4351C100.468 19.6728 100.673 19.9646 100.809 20.2902C100.945 20.6158 101.01 20.9676 100.998 21.3209C101.007 21.6738 100.94 22.0244 100.804 22.3495C100.668 22.6746 100.465 22.9668 100.208 23.2068C99.973 23.4683 99.684 23.6752 99.3616 23.8129C99.0392 23.9507 98.691 24.0161 98.3411 24.0046C97.9922 24.009 97.6462 23.9404 97.3248 23.8031C97.0034 23.6658 96.7137 23.4627 96.4738 23.2068C96.2289 22.9598 96.0359 22.6655 95.9062 22.3415C95.7766 22.0175 95.7129 21.6704 95.7192 21.3209C95.7165 20.971 95.7822 20.624 95.9124 20.2997C96.0426 19.9754 96.2347 19.6801 96.4779 19.4308C96.7211 19.1815 97.0105 18.983 97.3296 18.8467C97.6487 18.7103 97.9913 18.6388 98.3378 18.6362V18.6362C98.6884 18.6242 99.0373 18.6894 99.3603 18.8274C99.6834 18.9654 99.9728 19.1728 100.208 19.4351V19.4351Z" fill="#14A800"/>
<path d="M74.4799 31.9445C74.1375 31.9477 73.7974 31.8877 73.4768 31.7675C73.1802 31.6572 72.9091 31.4879 72.68 31.2699C72.4508 31.0519 72.2683 30.7896 72.1435 30.4991C71.891 29.8798 71.891 29.1865 72.1435 28.5673C72.2672 28.2782 72.4487 28.0175 72.677 27.8012C72.9091 27.5806 73.1835 27.4094 73.4836 27.2977C74.1653 27.0519 74.9134 27.0637 75.587 27.3308C75.9085 27.4659 76.1921 27.6776 76.413 27.9473L75.7127 28.5867C75.5674 28.4133 75.3871 28.2724 75.1837 28.1734C74.9824 28.0794 74.7626 28.0318 74.5404 28.0341C74.335 28.0329 74.1313 28.0717 73.9406 28.1482C73.7631 28.2178 73.6018 28.3233 73.4669 28.4581C73.332 28.5929 73.2265 28.754 73.1569 28.9315C73.0107 29.322 73.0107 29.7523 73.1569 30.1429C73.2261 30.3205 73.3315 30.4819 73.4665 30.6167C73.6014 30.7515 73.7628 30.8569 73.9406 30.9261C74.1313 31.0026 74.335 31.0414 74.5404 31.0403C74.763 31.0424 74.983 30.9936 75.1837 30.8975C75.3873 30.7972 75.5675 30.6552 75.7127 30.4808L76.413 31.1202C76.1916 31.3902 75.9082 31.6029 75.587 31.7401C75.2358 31.883 74.859 31.9525 74.4799 31.9445Z" fill="#202020"/>
<path d="M78.6592 31.8646V28.2807H79.652V29.2991L79.5127 29C79.6123 28.7546 79.7935 28.551 80.0256 28.4234C80.2908 28.2853 80.5871 28.2177 80.886 28.227V29.1929C80.8482 29.1849 80.8105 29.1781 80.7717 29.1735C80.7338 29.169 80.6956 29.1667 80.6574 29.1667C80.4009 29.1532 80.1495 29.2419 79.9582 29.4133C79.7846 29.5777 79.6977 29.83 79.6977 30.1725V31.8646H78.6592Z" fill="#202020"/>
<path d="M84.8516 31.9171C84.4799 31.9251 84.1117 31.8428 83.7788 31.6773C83.4843 31.5301 83.2372 31.303 83.0659 31.022C82.8943 30.7352 82.8065 30.4061 82.8122 30.0721C82.8068 29.7386 82.8908 29.4098 83.0556 29.1199C83.2161 28.8417 83.4517 28.6142 83.7354 28.4634C84.0377 28.303 84.3757 28.2217 84.7179 28.227C85.0489 28.2225 85.3757 28.301 85.6685 28.4554C85.9468 28.6022 86.1786 28.8236 86.338 29.0947C86.5096 29.3966 86.595 29.7398 86.5848 30.0869C86.5857 30.1323 86.5834 30.1777 86.5779 30.2228C86.5711 30.273 86.5688 30.3221 86.5642 30.3666H83.652V29.7604H86.0181L85.6114 29.9396C85.6199 29.7713 85.5832 29.6038 85.5051 29.4544C85.433 29.3196 85.3246 29.2077 85.1921 29.1313C85.0493 29.0522 84.888 29.0128 84.7248 29.0171C84.5609 29.0129 84.3989 29.0523 84.2552 29.1313C84.1206 29.2075 84.0107 29.3209 83.9387 29.4578C83.8597 29.6108 83.8204 29.7812 83.8245 29.9533V30.1132C83.8198 30.2952 83.8657 30.4751 83.957 30.6327C84.0436 30.7798 84.171 30.8988 84.3238 30.9752C84.499 31.0562 84.6907 31.0952 84.8836 31.0893C85.0533 31.0927 85.2221 31.0632 85.3806 31.0026C85.5285 30.943 85.6632 30.8549 85.777 30.7434L86.33 31.3428C86.1602 31.5325 85.948 31.6795 85.7108 31.7721C85.4363 31.8748 85.1446 31.924 84.8516 31.9171Z" fill="#202020"/>
<path d="M90.4168 31.9171C90.0974 31.9217 89.7824 31.843 89.5028 31.6888C89.2341 31.5378 89.0126 31.3153 88.863 31.046C88.7103 30.7452 88.6307 30.4127 88.6307 30.0755C88.6307 29.7383 88.7103 29.4058 88.863 29.105C89.0126 28.8357 89.2341 28.6132 89.5028 28.4622C89.7824 28.308 90.0974 28.2293 90.4168 28.2339C90.6966 28.2261 90.9732 28.2953 91.2165 28.4337C91.4508 28.5762 91.6349 28.7881 91.7432 29.0399C91.8782 29.3692 91.9417 29.7233 91.9295 30.0789C91.9408 30.4339 91.8793 30.7875 91.7489 31.1179C91.6478 31.3719 91.4665 31.5859 91.2325 31.7276C90.9827 31.8632 90.7008 31.9287 90.4168 31.9171ZM90.5904 31.0642C90.7535 31.0674 90.9145 31.0281 91.0577 30.9501C91.1976 30.8692 91.3116 30.7505 91.3868 30.6075C91.4723 30.4431 91.5148 30.2596 91.5102 30.0743C91.5159 29.8889 91.4734 29.7052 91.3868 29.5412C91.3104 29.4009 91.1964 29.2847 91.0577 29.2055C90.9145 29.1275 90.7535 29.0881 90.5904 29.0913C90.4307 29.0888 90.2732 29.1282 90.1334 29.2055C89.9941 29.2843 89.8797 29.4006 89.8032 29.5412C89.7166 29.7052 89.6741 29.8889 89.6799 30.0743C89.6752 30.2596 89.7177 30.4431 89.8032 30.6075C89.8782 30.751 89.9928 30.8699 90.1334 30.9501C90.2732 31.0274 90.4307 31.0667 90.5904 31.0642ZM91.5376 31.8634V31.1304L91.557 30.0641L91.4907 29.0057V26.922H92.5304V31.8646L91.5376 31.8634Z" fill="#202020"/>
<path d="M95.6095 27.7806C95.4361 27.7887 95.2664 27.7289 95.1365 27.6139C95.0282 27.5107 94.9648 27.3691 94.9599 27.2197C94.955 27.0702 95.009 26.9248 95.1102 26.8147C95.1182 26.8056 95.1274 26.7976 95.1365 26.7884C95.2666 26.6738 95.4362 26.6141 95.6095 26.6217C95.7802 26.6151 95.9475 26.6707 96.0802 26.7782C96.1389 26.8274 96.1858 26.8891 96.2175 26.9589C96.2491 27.0287 96.2647 27.1046 96.263 27.1812C96.2648 27.2614 96.2496 27.3411 96.2185 27.4151C96.1874 27.489 96.1411 27.5556 96.0825 27.6105C95.9536 27.7276 95.7835 27.7888 95.6095 27.7806ZM95.0862 31.8646V28.2807H96.1259V31.8646H95.0862Z" fill="#202020"/>
<path d="M98.2693 29.1598V28.3606H100.755V29.1598H98.2693ZM100.162 31.9171C99.7397 31.9171 99.4118 31.8098 99.1753 31.594C98.9388 31.3782 98.8222 31.0585 98.8222 30.6315V27.4883H99.8688V30.6121C99.8602 30.74 99.9011 30.8663 99.983 30.9649C100.024 31.0073 100.073 31.0406 100.128 31.0625C100.182 31.0843 100.241 31.0943 100.299 31.0916C100.453 31.0961 100.603 31.0491 100.727 30.958L101 31.691C100.887 31.7719 100.758 31.8297 100.623 31.8612C100.472 31.8986 100.318 31.9174 100.162 31.9171Z" fill="#202020"/>
<path d="M66.6732 28.6172H0V29.2827H66.6732V28.6172Z" fill="#202020"/>
</g>
<defs>
<clipPath id="clip0_1907_4330">
<rect width="101" height="31.9442" fill="white"/>
</clipPath>
</defs>
</svg>
