<svg width="203" height="32" viewBox="0 0 203 32" fill="none" xmlns="http://www.w3.org/2000/svg">
<g clip-path="url(#clip0_1907_4171)">
<path d="M34.3779 27.3155L42.1346 4.33594H47.5825L54.8467 27.3155H49.7372L43.181 5.64511L45.6127 5.40394L39.0873 27.3155H34.3779ZM38.7487 22.3544L39.7644 18.2545H49.0909L49.5525 22.3544H38.7487Z" fill="#1B045E"/>
<path d="M59.7367 27.3176L53.2422 9.88477H58.2285L62.9379 23.321L61.8298 23.3556L66.0159 9.88477H70.8484L64.3539 27.3176H59.7367Z" fill="#1B045E"/>
<path d="M78.1261 27.8335C77.1823 27.8335 76.2897 27.7301 75.4483 27.5234C74.6276 27.3397 73.8991 27.0297 73.2629 26.5932C72.6473 26.1339 72.1652 25.5252 71.8163 24.7673C71.4674 23.9863 71.293 23.0217 71.293 21.8733C71.293 20.7938 71.4879 19.8521 71.8778 19.0482C72.2883 18.2444 72.9039 17.6242 73.7246 17.1879C74.5454 16.7514 75.5817 16.5333 76.8334 16.5333C77.5311 16.5333 78.2083 16.6137 78.8649 16.7744C79.5216 16.9352 80.1064 17.1533 80.6194 17.429C81.1529 17.7046 81.5735 18.0032 81.8814 18.3248L82.066 20.8053C81.6557 20.5297 81.1632 20.3115 80.5886 20.1507C80.014 19.9899 79.3984 19.9095 78.7417 19.9095C77.7364 19.9095 76.9976 20.0818 76.5257 20.4263C76.0742 20.7478 75.8485 21.2647 75.8485 21.9766C75.8485 22.4131 75.9614 22.8035 76.1871 23.1481C76.4128 23.4925 76.7103 23.7567 77.0797 23.9404C77.4696 24.1242 77.8697 24.216 78.2801 24.216C79.3266 24.216 80.0551 24.1356 80.4655 23.9748C80.8964 23.814 81.1118 23.4925 81.1118 23.0102V16.6021C81.1118 15.5456 80.8041 14.7876 80.1885 14.3282C79.5934 13.8459 78.7418 13.6048 77.6337 13.6048C76.7309 13.6048 75.8177 13.7886 74.8942 14.1561C73.9914 14.5005 73.2527 14.9255 72.6782 15.4308V10.8831C73.2116 10.5156 74.0324 10.1711 75.1405 9.84952C76.2691 9.52797 77.5311 9.36719 78.9265 9.36719C79.419 9.36719 79.9628 9.41313 80.5578 9.505C81.1529 9.59687 81.7479 9.76913 82.343 10.0218C82.9382 10.2515 83.482 10.596 83.9745 11.0553C84.4874 11.5147 84.8978 12.1004 85.2056 12.8124C85.5134 13.5244 85.6673 14.4087 85.6673 15.4652L85.6365 23.6992C85.6365 24.6869 85.339 25.4907 84.7439 26.1109C84.1489 26.708 83.287 27.1445 82.1584 27.4201C81.0503 27.6957 79.7062 27.8335 78.1261 27.8335Z" fill="#1B045E"/>
<path d="M88.8154 11.3642C89.2052 11.1345 89.7182 10.9048 90.3544 10.6751C90.9905 10.4225 91.6882 10.2043 92.4475 10.0205C93.2067 9.83678 93.9659 9.68749 94.7251 9.57265C95.5049 9.45781 96.2231 9.40039 96.8798 9.40039C98.2751 9.40039 99.4652 9.6071 100.45 10.0205C101.435 10.411 102.184 11.0541 102.697 11.9498C103.231 12.8456 103.497 14.0629 103.497 15.6017V27.3155H98.9113V16.6353C98.9113 16.199 98.8496 15.797 98.7265 15.4296C98.6239 15.0621 98.4599 14.7519 98.234 14.4993C98.0083 14.2237 97.7006 14.017 97.3107 13.8791C96.9208 13.7183 96.4488 13.6379 95.8948 13.6379C95.4228 13.6379 94.9508 13.7069 94.4789 13.8447C94.007 13.9595 93.6478 14.0858 93.4015 14.2237V27.3155H88.8154V11.3642Z" fill="#1B045E"/>
<path d="M111.265 27.8327C110.157 27.8327 109.203 27.6948 108.403 27.4192C107.623 27.1665 106.884 26.8794 106.187 26.5579V22.0448C106.617 22.3663 107.1 22.6993 107.633 23.0438C108.167 23.3653 108.752 23.6295 109.388 23.8362C110.044 24.043 110.732 24.1463 111.45 24.1463C112.189 24.1463 112.702 24.0085 112.989 23.7328C113.297 23.4343 113.451 23.0782 113.451 22.6648C113.451 22.2744 113.297 21.9644 112.989 21.7346C112.681 21.4819 112.281 21.2752 111.789 21.1144C111.296 20.9537 110.773 20.8044 110.219 20.6666C109.726 20.5518 109.234 20.3795 108.741 20.1498C108.249 19.8972 107.808 19.5641 107.418 19.1507C107.028 18.7374 106.71 18.232 106.464 17.6349C106.238 17.0147 106.125 16.2682 106.125 15.3954C106.125 14.27 106.32 13.3399 106.71 12.6048C107.1 11.8469 107.613 11.2382 108.249 10.7789C108.885 10.3195 109.572 9.99797 110.311 9.81422C111.05 9.6075 111.768 9.51564 112.466 9.5386C113.738 9.58454 114.743 9.74532 115.482 10.0209C116.241 10.2736 116.929 10.6066 117.544 11.02V15.051C116.847 14.6145 116.149 14.2126 115.451 13.8451C114.774 13.4547 113.994 13.2595 113.112 13.2595C112.312 13.2595 111.737 13.3972 111.388 13.6729C111.04 13.9485 110.865 14.316 110.865 14.7754C110.865 15.2117 110.978 15.5562 111.204 15.8088C111.45 16.0615 111.768 16.2682 112.158 16.429C112.548 16.5669 112.979 16.7046 113.451 16.8424C113.964 16.9803 114.487 17.1525 115.02 17.3592C115.574 17.543 116.087 17.8186 116.559 18.1861C117.052 18.5306 117.442 19.0245 117.729 19.6675C118.037 20.2877 118.191 21.1144 118.191 22.148C118.17 23.5491 117.832 24.6745 117.175 25.5243C116.518 26.3512 115.667 26.9484 114.62 27.3159C113.594 27.6604 112.476 27.8327 111.265 27.8327Z" fill="#1B045E"/>
<path d="M129.811 27.7626C126.529 27.7626 124.014 26.7979 122.27 24.8685C120.547 22.9163 119.685 19.9075 119.685 15.8421C119.685 11.8916 120.515 8.90578 122.178 6.8846C123.84 4.84044 126.384 3.81836 129.811 3.81836C130.898 3.81836 131.996 3.96766 133.105 4.26624C134.213 4.56482 135.29 4.97824 136.336 5.50651V10.3643C135.27 9.58334 134.244 9.02062 133.259 8.6761C132.274 8.33158 131.35 8.15931 130.489 8.15931C129.278 8.15931 128.252 8.40048 127.41 8.88281C126.59 9.36514 125.953 10.169 125.502 11.2945C125.072 12.4199 124.855 13.9358 124.855 15.8421C124.855 17.7485 125.072 19.2529 125.502 20.3554C125.953 21.4578 126.61 22.2503 127.471 22.7326C128.354 23.1918 129.432 23.4216 130.704 23.4216C131.463 23.4216 132.325 23.2608 133.289 22.9393C134.253 22.6178 135.27 22.0665 136.336 21.2855V26.1433C135.762 26.4648 135.105 26.7519 134.366 27.0046C133.648 27.2343 132.889 27.418 132.089 27.5559C131.309 27.6936 130.55 27.7626 129.811 27.7626Z" fill="#1B045E"/>
<path d="M139.038 27.3168V11.7099C139.325 11.4343 139.839 11.1242 140.578 10.7797C141.317 10.4122 142.158 10.0907 143.102 9.81507C144.066 9.51649 145.031 9.36719 145.995 9.36719C146.959 9.36719 147.718 9.44758 148.273 9.60835C148.827 9.76913 149.247 9.97584 149.534 10.2285V13.9838C149.186 13.8919 148.745 13.823 148.21 13.7771C147.677 13.7311 147.123 13.7082 146.549 13.7082C145.974 13.6852 145.431 13.6852 144.918 13.7082C144.405 13.7311 143.974 13.7771 143.624 13.8459V27.3168H139.038Z" fill="#1B045E"/>
<path d="M157.79 27.8321C156.229 27.8321 154.844 27.4761 153.634 26.7641C152.444 26.0291 151.51 24.9955 150.834 23.6634C150.177 22.3083 149.849 20.7004 149.849 18.8401C149.849 15.8083 150.515 13.4656 151.849 11.8119C153.204 10.1352 155.133 9.29688 157.636 9.29688C159.36 9.29688 160.745 9.7103 161.791 10.5372C162.857 11.364 163.638 12.5698 164.131 14.1547C164.623 15.7394 164.859 17.6688 164.838 19.9426H152.987L152.495 16.6696H161.052L160.375 18.2889C160.354 16.4284 160.119 15.1193 159.667 14.3614C159.215 13.6034 158.477 13.2244 157.451 13.2244C156.877 13.2244 156.353 13.3852 155.881 13.7068C155.429 14.0283 155.07 14.5681 154.804 15.326C154.557 16.061 154.435 17.083 154.435 18.3922C154.435 20.0459 154.783 21.3206 155.481 22.2164C156.199 23.1121 157.338 23.56 158.897 23.56C159.473 23.56 160.036 23.4911 160.591 23.3534C161.165 23.1925 161.698 23.0088 162.191 22.8021C162.683 22.5954 163.104 22.4117 163.453 22.2509V26.6608C162.715 27.0052 161.883 27.2808 160.96 27.4875C160.056 27.7173 159 27.8321 157.79 27.8321Z" fill="#1B045E"/>
<path d="M174.55 27.8343C173.339 27.8343 172.221 27.6851 171.195 27.3864C170.19 27.0878 169.318 26.594 168.579 25.905C167.84 25.193 167.255 24.2283 166.824 23.011C166.414 21.7937 166.209 20.2778 166.209 18.4633C166.209 15.6382 166.824 13.4104 168.055 11.7796C169.307 10.1489 171.175 9.33355 173.658 9.33355C173.985 9.33355 174.417 9.36799 174.95 9.43689C175.483 9.48283 176.038 9.62065 176.612 9.85032C177.187 10.08 177.7 10.4705 178.151 11.0217L177.227 12.6065V2.71875H181.784V22.7699C181.784 23.6197 181.578 24.3661 181.167 25.0092C180.758 25.6294 180.204 26.1461 179.506 26.5596C178.829 26.973 178.059 27.283 177.197 27.4897C176.335 27.7195 175.453 27.8343 174.55 27.8343ZM174.735 23.5278C175.474 23.5278 176.068 23.4245 176.52 23.2177C176.992 22.9881 177.227 22.655 177.227 22.2186V14.1913C176.859 13.9615 176.459 13.7894 176.027 13.6746C175.617 13.5367 175.217 13.4678 174.827 13.4678C173.965 13.4678 173.237 13.6286 172.641 13.9501C172.047 14.2717 171.595 14.8115 171.288 15.5693C171.001 16.3274 170.856 17.3494 170.856 18.6356C170.856 19.6461 170.98 20.519 171.226 21.254C171.473 21.966 171.873 22.5287 172.426 22.9422C173 23.3326 173.77 23.5278 174.735 23.5278Z" fill="#1B045E"/>
<path d="M185.024 27.3169V10.1253H189.61L189.641 27.3169H185.024ZM184.932 7.50691V3.54492H189.672V7.50691H184.932Z" fill="#1B045E"/>
<path d="M199.191 28.0064C197.386 28.0064 196.042 27.5354 195.159 26.5938C194.277 25.6291 193.835 24.274 193.835 22.5285V13.8121H191.558V9.88454H193.835V5.0957H198.637V9.88454H202.054V13.8121H198.637V21.8739C198.637 22.471 198.75 22.9189 198.976 23.2175C199.201 23.4931 199.582 23.6309 200.115 23.6309C200.422 23.6309 200.761 23.5619 201.13 23.4242C201.5 23.2864 201.807 23.1141 202.054 22.9074V27.3173C201.622 27.5699 201.15 27.7422 200.637 27.8341C200.145 27.9489 199.663 28.0064 199.191 28.0064Z" fill="#1B045E"/>
<path d="M9.3369 6.07141C11.3504 1.2428 11.7937 0.671883 22.2966 0.671875L13.4286 23.8491C10.9095 30.357 12.678 29.7418 0.280273 29.7418L9.3369 6.07141Z" fill="#460BF4"/>
<path d="M28.5703 18.8663C25.7992 11.8924 26.5269 14.358 18.2471 13.7285L21.8606 24.4549C24.0769 31.4811 25.4807 29.253 32.6224 29.7563L28.5703 18.8663Z" fill="#B8A1FB"/>
</g>
<defs>
<clipPath id="clip0_1907_4171">
<rect width="203" height="32" fill="white"/>
</clipPath>
</defs>
</svg>
