<svg width="24" height="24" viewBox="0 0 24 24" fill="none" xmlns="http://www.w3.org/2000/svg">
<path fill-rule="evenodd" clip-rule="evenodd" d="M15.6799 17.1829C14.53 18.0532 13.16 18.5854 11.7241 18.7196C10.2882 18.8538 8.8433 18.5847 7.552 17.9425C6.26069 17.3003 5.17419 16.3106 4.4147 15.0846C3.65521 13.8586 3.25287 12.4451 3.25293 11.0029C3.25309 9.76785 3.54842 8.55073 4.1143 7.45295C4.68018 6.35518 5.50023 5.40854 6.5061 4.69193C7.51198 3.97531 8.67456 3.50947 9.89696 3.33323C11.1194 3.15698 12.3662 3.27543 13.5335 3.67871C14.7009 4.08198 15.7549 4.75841 16.6079 5.65161C17.4608 6.54482 18.0879 7.62894 18.437 8.81363C18.786 9.99833 18.8469 11.2493 18.6145 12.4623C18.3821 13.6752 17.8631 14.8151 17.1009 15.7869L19.8189 18.5239C19.958 18.6627 20.0684 18.8277 20.1436 19.0092C20.2189 19.1907 20.2577 19.3854 20.2577 19.5819C20.2577 19.7784 20.2189 19.973 20.1436 20.1546C20.0684 20.3361 19.958 20.501 19.8189 20.6399L19.4669 20.9999L15.6799 17.1829ZM16.7519 11.0029C16.7662 11.7669 16.628 12.526 16.3455 13.236C16.063 13.946 15.6418 14.5926 15.1065 15.1379C14.5713 15.6832 13.9327 16.1164 13.2281 16.4121C12.5235 16.7078 11.7671 16.8601 11.0029 16.8601C10.2388 16.8601 9.48234 16.7078 8.77776 16.4121C8.07317 16.1164 7.43458 15.6832 6.89933 15.1379C6.36407 14.5926 5.94288 13.946 5.66036 13.236C5.37785 12.526 5.23968 11.7669 5.25393 11.0029C5.23968 10.2389 5.37785 9.47972 5.66036 8.76974C5.94288 8.05976 6.36407 7.41321 6.89933 6.86788C7.43458 6.32255 8.07317 5.88937 8.77776 5.59366C9.48234 5.29796 10.2388 5.14565 11.0029 5.14565C11.7671 5.14565 12.5235 5.29796 13.2281 5.59366C13.9327 5.88937 14.5713 6.32255 15.1065 6.86788C15.6418 7.41321 16.063 8.05976 16.3455 8.76974C16.628 9.47972 16.7662 10.2389 16.7519 11.0029Z" fill="black" fill-opacity="0.4"/>
</svg>
