<svg width="24" height="19" viewBox="0 0 24 19" fill="none" xmlns="http://www.w3.org/2000/svg">
<path d="M22.8567 2.97894C21.8006 3.36812 20.6945 3.59454 19.5742 3.59454C16.4915 3.59454 13.844 2.18644 12.0244 0C11.9744 0 11.9316 0 11.8888 0C11.8103 0 11.739 0.00707889 11.6605 0.0141548C9.72666 2.41995 6.75813 4.00494 3.70397 4.00494C2.71922 4.00494 1.77729 3.85635 0.89244 3.58747C0.307299 4.2526 -0.0138156 4.97434 0.000456171 5.73146C0.0575431 8.75993 5.63781 19.1331 12.267 18.9987C18.8963 18.8572 24.1054 10.5572 23.9984 5.23615C23.9841 4.42242 23.5702 3.65823 22.8567 2.97894Z" fill="#FFDD2D"/>
</svg>
